<svg xmlns="http://www.w3.org/2000/svg" xmlns:xlink="http://www.w3.org/1999/xlink" width="185" zoomAndPan="magnify" viewBox="0 0 138.75 95.249998" height="127" preserveAspectRatio="xMidYMid meet" version="1.0"><defs><clipPath id="ed936cbbcb"><path d="M 0.417969 0 L 138.082031 0 L 138.082031 94.503906 L 0.417969 94.503906 Z M 0.417969 0 " clip-rule="nonzero"/></clipPath><clipPath id="e5eac45be0"><path d="M 15.300781 0 L 123.199219 0 C 127.148438 0 130.933594 1.566406 133.726562 4.359375 C 136.515625 7.148438 138.082031 10.9375 138.082031 14.882812 L 138.082031 80.140625 C 138.082031 84.085938 136.515625 87.871094 133.726562 90.664062 C 130.933594 93.453125 127.148438 95.023438 123.199219 95.023438 L 15.300781 95.023438 C 11.355469 95.023438 7.566406 93.453125 4.777344 90.664062 C 1.984375 87.871094 0.417969 84.085938 0.417969 80.140625 L 0.417969 14.882812 C 0.417969 10.9375 1.984375 7.148438 4.777344 4.359375 C 7.566406 1.566406 11.355469 0 15.300781 0 Z M 15.300781 0 " clip-rule="nonzero"/></clipPath><clipPath id="f7b59b91c8"><path d="M 0.421875 0 L 138.082031 0 L 138.082031 94.503906 L 0.421875 94.503906 Z M 0.421875 0 " clip-rule="nonzero"/></clipPath><clipPath id="ade72eb12b"><path d="M 15.304688 0 L 123.199219 0 C 127.144531 0 130.929688 1.566406 133.722656 4.359375 C 136.511719 7.148438 138.082031 10.933594 138.082031 14.882812 L 138.082031 80.136719 C 138.082031 84.082031 136.511719 87.867188 133.722656 90.660156 C 130.929688 93.449219 127.144531 95.015625 123.199219 95.015625 L 15.304688 95.015625 C 11.355469 95.015625 7.570312 93.449219 4.78125 90.660156 C 1.988281 87.867188 0.421875 84.082031 0.421875 80.136719 L 0.421875 14.882812 C 0.421875 10.933594 1.988281 7.148438 4.78125 4.359375 C 7.570312 1.566406 11.355469 0 15.304688 0 Z M 15.304688 0 " clip-rule="nonzero"/></clipPath></defs><g clip-path="url(#ed936cbbcb)"><g clip-path="url(#e5eac45be0)"><path fill="#ffffff" d="M 0.417969 0 L 138.082031 0 L 138.082031 95.023438 L 0.417969 95.023438 Z M 0.417969 0 " fill-opacity="1" fill-rule="nonzero"/></g></g><g clip-path="url(#f7b59b91c8)"><g clip-path="url(#ade72eb12b)"><path strokeLinecap="butt" transform="matrix(0.744141, 0, 0, 0.744141, 0.420895, 0.000000992187)" fill="none" strokeLinejoin="miter" d="M 20.001318 -0.00000133333 L 164.993453 -0.00000133333 C 170.29529 -0.00000133333 175.381905 2.104986 179.135186 5.858267 C 182.883218 9.606298 184.993454 14.692913 184.993454 20 L 184.993454 107.690294 C 184.993454 112.992132 182.883218 118.078746 179.135186 121.832027 C 175.381905 125.580059 170.29529 127.685046 164.993453 127.685046 L 20.001318 127.685046 C 14.694231 127.685046 9.607616 125.580059 5.859585 121.832027 C 2.106303 118.078746 0.00131646 112.992132 0.00131646 107.690294 L 0.00131646 20 C 0.00131646 14.692913 2.106303 9.606298 5.859585 5.858267 C 9.607616 2.104986 14.694231 -0.00000133333 20.001318 -0.00000133333 Z M 20.001318 -0.00000133333 " stroke="#e8e8e8" strokeWidth="16" stroke-opacity="1" stroke-miterlimit="4"/></g></g><path fill="#2fabf7" d="M 27.730469 38.550781 L 31.234375 38.550781 L 29.484375 34.089844 Z M 27.730469 38.550781 " fill-opacity="1" fill-rule="nonzero"/><path fill="#228fe0" d="M 71.21875 34.726562 C 70.898438 34.570312 70.421875 34.570312 69.945312 34.570312 L 66.757812 34.570312 L 66.757812 37.117188 L 69.945312 37.117188 C 70.421875 37.117188 70.898438 37.117188 71.21875 36.957031 C 71.535156 36.796875 71.695312 36.320312 71.695312 35.84375 C 71.855469 35.207031 71.535156 34.886719 71.21875 34.726562 Z M 71.21875 34.726562 " fill-opacity="1" fill-rule="nonzero"/><path fill="#0571c1" d="M 105.308594 29.949219 L 105.308594 31.859375 L 104.351562 29.949219 L 96.863281 29.949219 L 96.863281 31.859375 L 95.910156 29.949219 L 85.714844 29.949219 C 83.960938 29.949219 82.527344 30.269531 81.253906 30.90625 L 81.253906 29.949219 L 74.085938 29.949219 L 74.085938 30.90625 C 73.289062 30.269531 72.332031 29.949219 71.058594 29.949219 L 45.414062 29.949219 L 43.660156 33.929688 L 41.910156 29.949219 L 33.785156 29.949219 L 33.785156 31.859375 L 32.828125 29.949219 L 25.980469 29.949219 L 22.792969 37.4375 L 19.128906 45.71875 L 27.253906 45.71875 L 28.210938 43.171875 L 30.4375 43.171875 L 31.394531 45.71875 L 40.632812 45.71875 L 40.632812 43.808594 L 41.429688 45.71875 L 46.050781 45.71875 L 46.847656 43.808594 L 46.847656 45.71875 L 68.988281 45.71875 L 68.988281 41.578125 L 69.308594 41.578125 C 69.625 41.578125 69.625 41.578125 69.625 42.054688 L 69.625 45.558594 L 81.09375 45.558594 L 81.09375 44.605469 C 82.050781 45.082031 83.484375 45.558594 85.394531 45.558594 L 90.175781 45.558594 L 91.128906 43.011719 L 93.359375 43.011719 L 94.316406 45.558594 L 103.554688 45.558594 L 103.554688 43.171875 L 104.988281 45.558594 L 112.476562 45.558594 L 112.476562 29.949219 Z M 51.464844 43.328125 L 48.757812 43.328125 L 48.757812 34.570312 L 44.933594 43.328125 L 42.546875 43.328125 L 38.722656 34.570312 L 38.722656 43.328125 L 33.308594 43.328125 L 32.191406 40.941406 L 26.777344 40.941406 L 25.820312 43.488281 L 22.792969 43.488281 L 27.570312 32.179688 L 31.554688 32.179688 L 36.015625 42.851562 L 36.015625 32.179688 L 40.316406 32.179688 L 43.820312 39.824219 L 47.003906 32.179688 L 51.464844 32.179688 Z M 62.296875 34.570312 L 56.085938 34.570312 L 56.085938 36.640625 L 62.136719 36.640625 L 62.136719 38.871094 L 56.085938 38.871094 L 56.085938 41.101562 L 62.296875 41.101562 L 62.296875 43.488281 L 53.378906 43.488281 L 53.378906 32.179688 L 62.296875 32.179688 Z M 74.246094 39.1875 C 74.5625 39.824219 74.722656 40.304688 74.722656 41.257812 L 74.722656 43.488281 L 72.015625 43.488281 L 72.015625 42.054688 C 72.015625 41.417969 72.015625 40.460938 71.535156 39.824219 C 71.058594 39.347656 70.582031 39.347656 69.625 39.347656 L 66.757812 39.347656 L 66.757812 43.488281 L 64.050781 43.488281 L 64.050781 32.179688 L 70.101562 32.179688 C 71.535156 32.179688 72.492188 32.179688 73.289062 32.65625 C 74.085938 33.136719 74.5625 33.929688 74.5625 35.207031 C 74.5625 36.957031 73.449219 37.914062 72.652344 38.234375 C 73.449219 38.390625 73.925781 38.871094 74.246094 39.1875 Z M 79.023438 43.328125 L 76.316406 43.328125 L 76.316406 32.019531 L 79.023438 32.019531 Z M 110.402344 43.328125 L 106.582031 43.328125 L 101.484375 34.886719 L 101.484375 43.328125 L 96.066406 43.328125 L 95.113281 40.941406 L 89.535156 40.941406 L 88.582031 43.488281 L 85.554688 43.488281 C 84.28125 43.488281 82.6875 43.171875 81.730469 42.214844 C 80.777344 41.257812 80.296875 39.984375 80.296875 37.914062 C 80.296875 36.320312 80.617188 34.726562 81.730469 33.453125 C 82.527344 32.496094 83.960938 32.179688 85.714844 32.179688 L 88.261719 32.179688 L 88.261719 34.570312 L 85.714844 34.570312 C 84.757812 34.570312 84.28125 34.726562 83.644531 35.207031 C 83.164062 35.683594 82.847656 36.640625 82.847656 37.753906 C 82.847656 39.027344 83.007812 39.824219 83.644531 40.460938 C 84.121094 40.941406 84.757812 41.101562 85.554688 41.101562 L 86.667969 41.101562 L 90.332031 32.339844 L 94.316406 32.339844 L 98.777344 43.011719 L 98.777344 32.339844 L 102.757812 32.339844 L 107.378906 40.144531 L 107.378906 32.339844 L 110.085938 32.339844 L 110.085938 43.328125 Z M 110.402344 43.328125 " fill-opacity="1" fill-rule="nonzero"/><path fill="#228fe0" d="M 90.492188 38.550781 L 94.15625 38.550781 L 92.402344 34.089844 Z M 63.414062 61.488281 L 63.414062 52.410156 L 59.269531 56.871094 Z M 63.414062 61.488281 " fill-opacity="1" fill-rule="nonzero"/><path fill="#2fabf7" d="M 46.367188 53.523438 L 46.367188 55.59375 L 52.261719 55.59375 L 52.261719 57.824219 L 46.367188 57.824219 L 46.367188 60.214844 L 52.898438 60.214844 L 55.925781 56.871094 L 53.058594 53.523438 Z M 46.367188 53.523438 " fill-opacity="1" fill-rule="nonzero"/><path fill="#228fe0" d="M 69.464844 53.523438 L 66.121094 53.523438 L 66.121094 56.390625 L 69.625 56.390625 C 70.582031 56.390625 71.21875 55.914062 71.21875 54.957031 C 71.058594 54.003906 70.421875 53.523438 69.464844 53.523438 Z M 69.464844 53.523438 " fill-opacity="1" fill-rule="nonzero"/><path fill="#0571c1" d="M 118.6875 56.234375 L 118.6875 49.0625 L 111.996094 49.0625 C 110.5625 49.0625 109.449219 49.382812 108.652344 50.019531 L 108.652344 49.0625 L 101.324219 49.0625 C 100.210938 49.0625 98.777344 49.382812 98.140625 50.019531 L 98.140625 49.0625 L 85.234375 49.0625 L 85.234375 50.019531 C 84.28125 49.222656 82.527344 49.0625 81.730469 49.0625 L 73.128906 49.0625 L 73.128906 50.019531 C 72.332031 49.222656 70.421875 49.0625 69.464844 49.0625 L 59.910156 49.0625 L 57.679688 51.453125 L 55.609375 49.0625 L 41.269531 49.0625 L 41.269531 64.675781 L 55.289062 64.675781 L 57.519531 62.285156 L 59.589844 64.675781 L 68.191406 64.675781 L 68.191406 61.011719 L 69.308594 61.011719 C 70.421875 61.011719 71.855469 61.011719 72.96875 60.535156 L 72.96875 64.835938 L 80.140625 64.835938 L 80.140625 60.691406 L 80.457031 60.691406 C 80.933594 60.691406 80.933594 60.691406 80.933594 61.171875 L 80.933594 64.835938 L 102.597656 64.835938 C 104.03125 64.835938 105.464844 64.515625 106.261719 63.878906 L 106.261719 64.835938 L 113.113281 64.835938 C 114.546875 64.835938 115.980469 64.675781 116.933594 64.039062 C 118.527344 63.082031 119.484375 61.328125 119.484375 59.257812 C 119.484375 58.144531 119.164062 57.027344 118.6875 56.234375 Z M 69.308594 58.78125 L 66.121094 58.78125 L 66.121094 62.605469 L 61.023438 62.605469 L 57.835938 58.941406 L 54.492188 62.605469 L 43.980469 62.605469 L 43.980469 51.292969 L 54.652344 51.292969 L 57.835938 54.957031 L 61.183594 51.292969 L 69.625 51.292969 C 71.695312 51.292969 74.085938 51.929688 74.085938 54.957031 C 73.925781 58.144531 71.695312 58.78125 69.308594 58.78125 Z M 85.234375 58.144531 C 85.554688 58.621094 85.714844 59.257812 85.714844 60.214844 L 85.714844 62.445312 L 83.007812 62.445312 L 83.007812 61.011719 C 83.007812 60.375 83.007812 59.257812 82.527344 58.78125 C 82.210938 58.304688 81.574219 58.304688 80.617188 58.304688 L 77.75 58.304688 L 77.75 62.445312 L 75.042969 62.445312 L 75.042969 51.136719 L 81.09375 51.136719 C 82.367188 51.136719 83.484375 51.136719 84.28125 51.613281 C 85.078125 52.089844 85.714844 52.886719 85.714844 54.160156 C 85.714844 55.914062 84.597656 56.871094 83.800781 57.1875 C 84.597656 57.507812 85.078125 57.824219 85.234375 58.144531 Z M 96.226562 53.523438 L 90.015625 53.523438 L 90.015625 55.59375 L 96.066406 55.59375 L 96.066406 57.824219 L 90.015625 57.824219 L 90.015625 60.054688 L 96.226562 60.054688 L 96.226562 62.445312 L 87.308594 62.445312 L 87.308594 51.136719 L 96.226562 51.136719 Z M 102.917969 62.445312 L 97.820312 62.445312 L 97.820312 60.054688 L 102.917969 60.054688 C 103.394531 60.054688 103.714844 60.054688 104.03125 59.738281 C 104.191406 59.578125 104.351562 59.257812 104.351562 58.941406 C 104.351562 58.621094 104.191406 58.304688 104.03125 58.144531 C 103.875 57.984375 103.554688 57.824219 103.078125 57.824219 C 100.527344 57.667969 97.5 57.824219 97.5 54.320312 C 97.5 52.726562 98.457031 50.976562 101.324219 50.976562 L 106.582031 50.976562 L 106.582031 53.683594 L 101.644531 53.683594 C 101.164062 53.683594 100.847656 53.683594 100.527344 53.84375 C 100.210938 54.003906 100.210938 54.320312 100.210938 54.640625 C 100.210938 55.117188 100.527344 55.277344 100.847656 55.4375 C 101.164062 55.59375 101.484375 55.59375 101.800781 55.59375 L 103.234375 55.59375 C 104.667969 55.59375 105.625 55.914062 106.261719 56.550781 C 106.742188 57.027344 107.058594 57.824219 107.058594 58.941406 C 107.058594 61.328125 105.625 62.445312 102.917969 62.445312 Z M 116.617188 61.328125 C 115.980469 61.96875 114.863281 62.445312 113.273438 62.445312 L 108.175781 62.445312 L 108.175781 60.054688 L 113.273438 60.054688 C 113.75 60.054688 114.066406 60.054688 114.386719 59.738281 C 114.546875 59.578125 114.707031 59.257812 114.707031 58.941406 C 114.707031 58.621094 114.546875 58.304688 114.386719 58.144531 C 114.226562 57.984375 113.910156 57.824219 113.429688 57.824219 C 110.882812 57.667969 107.855469 57.824219 107.855469 54.320312 C 107.855469 52.726562 108.8125 50.976562 111.679688 50.976562 L 116.933594 50.976562 L 116.933594 53.683594 L 112.15625 53.683594 C 111.679688 53.683594 111.359375 53.683594 111.042969 53.84375 C 110.722656 54.003906 110.722656 54.320312 110.722656 54.640625 C 110.722656 55.117188 110.882812 55.277344 111.359375 55.4375 C 111.679688 55.59375 111.996094 55.59375 112.316406 55.59375 L 113.75 55.59375 C 115.183594 55.59375 116.140625 55.914062 116.777344 56.550781 C 116.933594 56.550781 116.933594 56.710938 116.933594 56.710938 C 117.414062 57.347656 117.574219 58.144531 117.574219 58.941406 C 117.574219 59.894531 117.253906 60.691406 116.617188 61.328125 Z M 116.617188 61.328125 " fill-opacity="1" fill-rule="nonzero"/><path fill="#228fe0" d="M 82.367188 53.84375 C 82.050781 53.683594 81.574219 53.683594 81.09375 53.683594 L 77.910156 53.683594 L 77.910156 56.234375 L 81.09375 56.234375 C 81.574219 56.234375 82.050781 56.234375 82.367188 56.074219 C 82.6875 55.914062 82.847656 55.4375 82.847656 54.957031 C 83.007812 54.320312 82.6875 54.003906 82.367188 53.84375 Z M 82.367188 53.84375 " fill-opacity="1" fill-rule="nonzero"/><path fill="#228fe0" d="M 71.21875 34.726562 C 70.898438 34.570312 70.421875 34.570312 69.945312 34.570312 L 66.757812 34.570312 L 66.757812 37.117188 L 69.945312 37.117188 C 70.421875 37.117188 70.898438 37.117188 71.21875 36.957031 C 71.535156 36.796875 71.695312 36.320312 71.695312 35.84375 C 71.855469 35.207031 71.535156 34.886719 71.21875 34.726562 Z M 90.492188 38.550781 L 94.15625 38.550781 L 92.402344 34.089844 Z M 63.414062 61.488281 L 63.414062 52.410156 L 59.269531 56.871094 Z M 69.464844 53.523438 L 66.121094 53.523438 L 66.121094 56.390625 L 69.625 56.390625 C 70.582031 56.390625 71.21875 55.914062 71.21875 54.957031 C 71.058594 54.003906 70.421875 53.523438 69.464844 53.523438 Z M 82.367188 53.84375 C 82.050781 53.683594 81.574219 53.683594 81.09375 53.683594 L 77.910156 53.683594 L 77.910156 56.234375 L 81.09375 56.234375 C 81.574219 56.234375 82.050781 56.234375 82.367188 56.074219 C 82.6875 55.914062 82.847656 55.4375 82.847656 54.957031 C 83.007812 54.320312 82.6875 54.003906 82.367188 53.84375 Z M 82.367188 53.84375 " fill-opacity="1" fill-rule="nonzero"/><path fill="#2fabf7" d="M 68.351562 62.125 L 66.121094 59.738281 L 66.121094 62.445312 L 60.863281 62.445312 L 57.679688 58.78125 L 54.175781 62.445312 L 43.660156 62.445312 L 43.660156 51.292969 L 54.332031 51.292969 L 57.679688 54.957031 L 59.269531 53.046875 L 55.289062 49.0625 L 41.269531 49.0625 L 41.269531 64.675781 L 55.289062 64.675781 L 57.679688 62.285156 L 59.75 64.675781 L 68.351562 64.675781 Z M 68.351562 62.125 " fill-opacity="1" fill-rule="nonzero"/><path fill="#2fabf7" d="M 51.785156 45.558594 L 49.714844 43.328125 L 48.757812 43.328125 L 48.757812 42.375 L 46.367188 39.984375 L 44.777344 43.328125 L 42.546875 43.328125 L 38.722656 34.570312 L 38.722656 43.328125 L 33.308594 43.328125 L 32.191406 40.941406 L 26.777344 40.941406 L 25.660156 43.328125 L 22.792969 43.328125 L 27.570312 32.179688 L 31.554688 32.179688 L 36.015625 42.851562 L 36.015625 32.179688 L 38.402344 32.179688 L 36.175781 29.949219 L 33.785156 29.949219 L 33.785156 31.859375 L 32.988281 29.949219 L 25.980469 29.949219 L 22.792969 37.4375 L 19.128906 45.558594 L 27.414062 45.558594 L 28.367188 43.171875 L 30.597656 43.171875 L 31.714844 45.558594 L 40.632812 45.558594 L 40.632812 43.648438 L 41.429688 45.558594 L 46.050781 45.558594 L 46.847656 43.648438 L 46.847656 45.558594 Z M 51.785156 45.558594 " fill-opacity="1" fill-rule="nonzero"/><path fill="#2fabf7" d="M 44.457031 38.234375 L 41.910156 35.683594 L 43.820312 39.824219 Z M 44.457031 38.234375 " fill-opacity="1" fill-rule="nonzero"/><path fill="#228fe0" d="M 116.933594 63.878906 C 118.367188 62.921875 119.324219 61.328125 119.484375 59.578125 L 117.253906 57.347656 C 117.414062 57.824219 117.574219 58.304688 117.574219 58.941406 C 117.574219 59.894531 117.253906 60.691406 116.617188 61.328125 C 115.980469 61.96875 114.863281 62.445312 113.273438 62.445312 L 108.175781 62.445312 L 108.175781 60.054688 L 113.273438 60.054688 C 113.75 60.054688 114.066406 60.054688 114.386719 59.738281 C 114.546875 59.578125 114.707031 59.257812 114.707031 58.941406 C 114.707031 58.621094 114.546875 58.304688 114.386719 58.144531 C 114.226562 57.984375 113.910156 57.824219 113.429688 57.824219 C 110.882812 57.667969 107.855469 57.824219 107.855469 54.320312 C 107.855469 52.726562 108.8125 51.292969 111.199219 50.976562 L 109.449219 49.222656 C 109.128906 49.382812 108.96875 49.542969 108.8125 49.542969 L 108.8125 48.585938 L 101.484375 48.585938 C 100.367188 48.585938 98.933594 48.90625 98.296875 49.542969 L 98.296875 48.585938 L 85.234375 48.585938 L 85.234375 49.542969 C 84.28125 48.746094 82.527344 48.585938 81.730469 48.585938 L 73.128906 48.585938 L 73.128906 49.542969 C 72.332031 48.746094 70.421875 48.585938 69.464844 48.585938 L 59.910156 48.585938 L 57.679688 50.976562 L 55.609375 48.585938 L 53.855469 48.585938 L 58.632812 53.367188 L 61.023438 50.816406 L 69.464844 50.816406 C 71.535156 50.816406 73.925781 51.453125 73.925781 54.480469 C 73.925781 57.667969 71.695312 58.304688 69.308594 58.304688 L 66.121094 58.304688 L 66.121094 60.691406 L 68.511719 63.082031 L 68.511719 60.691406 L 69.308594 60.691406 C 70.421875 60.691406 71.855469 60.691406 72.96875 60.214844 L 72.96875 64.515625 L 80.140625 64.515625 L 80.140625 60.375 L 80.457031 60.375 C 80.933594 60.375 80.933594 60.375 80.933594 60.851562 L 80.933594 64.515625 L 102.597656 64.515625 C 104.03125 64.515625 105.464844 64.195312 106.261719 63.558594 L 106.261719 64.515625 L 113.113281 64.515625 C 114.386719 64.675781 115.820312 64.515625 116.933594 63.878906 Z M 85.234375 58.144531 C 85.554688 58.621094 85.714844 59.257812 85.714844 60.214844 L 85.714844 62.445312 L 83.007812 62.445312 L 83.007812 61.011719 C 83.007812 60.375 83.007812 59.257812 82.527344 58.78125 C 82.210938 58.304688 81.574219 58.304688 80.617188 58.304688 L 77.75 58.304688 L 77.75 62.445312 L 75.042969 62.445312 L 75.042969 51.136719 L 81.09375 51.136719 C 82.367188 51.136719 83.484375 51.136719 84.28125 51.613281 C 85.078125 52.089844 85.714844 52.886719 85.714844 54.160156 C 85.714844 55.914062 84.597656 56.871094 83.800781 57.1875 C 84.597656 57.507812 85.078125 57.824219 85.234375 58.144531 Z M 96.226562 53.523438 L 90.015625 53.523438 L 90.015625 55.59375 L 96.066406 55.59375 L 96.066406 57.824219 L 90.015625 57.824219 L 90.015625 60.054688 L 96.226562 60.054688 L 96.226562 62.445312 L 87.308594 62.445312 L 87.308594 51.136719 L 96.226562 51.136719 Z M 102.917969 62.445312 L 97.820312 62.445312 L 97.820312 60.054688 L 102.917969 60.054688 C 103.394531 60.054688 103.714844 60.054688 104.03125 59.738281 C 104.191406 59.578125 104.351562 59.257812 104.351562 58.941406 C 104.351562 58.621094 104.191406 58.304688 104.03125 58.144531 C 103.875 57.984375 103.554688 57.824219 103.078125 57.824219 C 100.527344 57.667969 97.5 57.824219 97.5 54.320312 C 97.5 52.726562 98.457031 50.976562 101.324219 50.976562 L 106.582031 50.976562 L 106.582031 53.683594 L 101.644531 53.683594 C 101.164062 53.683594 100.847656 53.683594 100.527344 53.84375 C 100.210938 54.003906 100.210938 54.320312 100.210938 54.640625 C 100.210938 55.117188 100.527344 55.277344 100.847656 55.4375 C 101.164062 55.59375 101.484375 55.59375 101.800781 55.59375 L 103.234375 55.59375 C 104.667969 55.59375 105.625 55.914062 106.261719 56.550781 C 106.742188 57.027344 107.058594 57.824219 107.058594 58.941406 C 107.058594 61.328125 105.625 62.445312 102.917969 62.445312 Z M 102.917969 62.445312 " fill-opacity="1" fill-rule="nonzero"/><path fill="#228fe0" d="M 110.5625 54.640625 C 110.5625 55.117188 110.722656 55.277344 111.199219 55.4375 C 111.519531 55.59375 111.839844 55.59375 112.15625 55.59375 L 113.589844 55.59375 C 114.546875 55.59375 115.183594 55.753906 115.820312 56.074219 L 113.429688 53.683594 L 111.996094 53.683594 C 111.519531 53.683594 111.199219 53.683594 110.882812 53.84375 C 110.722656 54.003906 110.5625 54.320312 110.5625 54.640625 Z M 110.5625 54.640625 " fill-opacity="1" fill-rule="nonzero"/><path fill="#228fe0" d="M 104.988281 45.082031 L 105.308594 45.558594 L 105.464844 45.558594 Z M 96.226562 36.320312 L 98.933594 42.851562 L 98.933594 39.027344 Z M 96.226562 36.320312 " fill-opacity="1" fill-rule="nonzero"/><path fill="#228fe0" d="M 68.988281 41.578125 L 69.308594 41.578125 C 69.625 41.578125 69.625 41.578125 69.625 42.054688 L 69.625 45.558594 L 81.09375 45.558594 L 81.09375 44.605469 C 82.050781 45.082031 83.484375 45.558594 85.394531 45.558594 L 90.175781 45.558594 L 91.128906 43.011719 L 93.359375 43.011719 L 94.316406 45.558594 L 103.554688 45.558594 L 103.554688 43.96875 L 101.324219 41.738281 L 101.324219 43.488281 L 95.910156 43.488281 L 95.113281 40.941406 L 89.535156 40.941406 L 88.582031 43.488281 L 85.554688 43.488281 C 84.28125 43.488281 82.6875 43.171875 81.730469 42.214844 C 80.777344 41.257812 80.296875 39.984375 80.296875 37.914062 C 80.296875 36.320312 80.617188 34.726562 81.730469 33.453125 C 82.527344 32.496094 83.960938 32.179688 85.714844 32.179688 L 88.261719 32.179688 L 88.261719 34.570312 L 85.714844 34.570312 C 84.757812 34.570312 84.28125 34.726562 83.644531 35.207031 C 83.164062 35.683594 82.847656 36.640625 82.847656 37.753906 C 82.847656 39.027344 83.007812 39.824219 83.644531 40.460938 C 84.121094 40.941406 84.757812 41.101562 85.554688 41.101562 L 86.667969 41.101562 L 90.332031 32.339844 L 91.925781 32.339844 L 89.695312 30.109375 L 85.554688 30.109375 C 83.800781 30.109375 82.367188 30.425781 81.09375 31.0625 L 81.09375 30.109375 L 74.085938 30.109375 L 74.085938 31.0625 C 73.289062 30.425781 72.332031 30.109375 71.058594 30.109375 L 45.414062 30.109375 L 43.660156 34.089844 L 41.910156 30.109375 L 34.898438 30.109375 L 37.128906 32.339844 L 40.316406 32.339844 L 43.023438 38.234375 L 43.980469 39.1875 L 46.847656 32.179688 L 51.308594 32.179688 L 51.308594 43.488281 L 48.597656 43.488281 L 48.597656 34.726562 L 45.890625 41.101562 L 50.511719 45.71875 L 68.828125 45.71875 Z M 76.316406 32.179688 L 79.023438 32.179688 L 79.023438 43.488281 L 76.316406 43.488281 Z M 62.296875 34.570312 L 56.085938 34.570312 L 56.085938 36.640625 L 62.136719 36.640625 L 62.136719 38.871094 L 56.085938 38.871094 L 56.085938 41.101562 L 62.296875 41.101562 L 62.296875 43.488281 L 53.378906 43.488281 L 53.378906 32.179688 L 62.296875 32.179688 Z M 66.757812 43.328125 L 64.050781 43.328125 L 64.050781 32.019531 L 70.101562 32.019531 C 71.535156 32.019531 72.492188 32.019531 73.289062 32.496094 C 74.085938 32.976562 74.5625 33.773438 74.5625 35.046875 C 74.5625 36.796875 73.449219 37.753906 72.652344 38.074219 C 73.289062 38.234375 73.765625 38.710938 73.925781 39.027344 C 74.246094 39.667969 74.402344 40.144531 74.402344 41.101562 L 74.402344 43.328125 L 71.695312 43.328125 L 71.695312 41.894531 C 71.695312 41.257812 71.695312 40.304688 71.21875 39.667969 C 71.058594 39.347656 70.582031 39.347656 69.625 39.347656 L 66.757812 39.347656 Z M 66.757812 43.328125 " fill-opacity="1" fill-rule="nonzero"/></svg>