<svg xmlns="http://www.w3.org/2000/svg" xmlns:xlink="http://www.w3.org/1999/xlink" width="185" zoomAndPan="magnify" viewBox="0 0 138.75 95.249998" height="127" preserveAspectRatio="xMidYMid meet" version="1.0"><defs><clipPath id="b478b67b77"><path d="M 0.417969 0 L 138.082031 0 L 138.082031 94.503906 L 0.417969 94.503906 Z M 0.417969 0 " clip-rule="nonzero"/></clipPath><clipPath id="86280749a3"><path d="M 15.300781 0 L 123.199219 0 C 127.148438 0 130.933594 1.566406 133.726562 4.359375 C 136.515625 7.148438 138.082031 10.9375 138.082031 14.882812 L 138.082031 80.140625 C 138.082031 84.085938 136.515625 87.871094 133.726562 90.664062 C 130.933594 93.453125 127.148438 95.023438 123.199219 95.023438 L 15.300781 95.023438 C 11.355469 95.023438 7.566406 93.453125 4.777344 90.664062 C 1.984375 87.871094 0.417969 84.085938 0.417969 80.140625 L 0.417969 14.882812 C 0.417969 10.9375 1.984375 7.148438 4.777344 4.359375 C 7.566406 1.566406 11.355469 0 15.300781 0 Z M 15.300781 0 " clip-rule="nonzero"/></clipPath><clipPath id="7e91217c3d"><path d="M 0.421875 0 L 138.082031 0 L 138.082031 94.503906 L 0.421875 94.503906 Z M 0.421875 0 " clip-rule="nonzero"/></clipPath><clipPath id="4a8aa03654"><path d="M 15.304688 0 L 123.199219 0 C 127.144531 0 130.929688 1.566406 133.722656 4.359375 C 136.511719 7.148438 138.082031 10.933594 138.082031 14.882812 L 138.082031 80.136719 C 138.082031 84.082031 136.511719 87.867188 133.722656 90.660156 C 130.929688 93.449219 127.144531 95.015625 123.199219 95.015625 L 15.304688 95.015625 C 11.355469 95.015625 7.570312 93.449219 4.78125 90.660156 C 1.988281 87.867188 0.421875 84.082031 0.421875 80.136719 L 0.421875 14.882812 C 0.421875 10.933594 1.988281 7.148438 4.78125 4.359375 C 7.570312 1.566406 11.355469 0 15.304688 0 Z M 15.304688 0 " clip-rule="nonzero"/></clipPath><clipPath id="1d6a3d4cbb"><path d="M 32.367188 59 L 74 59 L 74 79.449219 L 32.367188 79.449219 Z M 32.367188 59 " clip-rule="nonzero"/></clipPath><clipPath id="f0576190c5"><path d="M 52 15.453125 L 84 15.453125 L 84 52 L 52 52 Z M 52 15.453125 " clip-rule="nonzero"/></clipPath></defs><g clip-path="url(#b478b67b77)"><g clip-path="url(#86280749a3)"><path fill="#ffffff" d="M 0.417969 0 L 138.082031 0 L 138.082031 95.023438 L 0.417969 95.023438 Z M 0.417969 0 " fill-opacity="1" fill-rule="nonzero"/></g></g><g clip-path="url(#7e91217c3d)"><g clip-path="url(#4a8aa03654)"><path strokeLinecap="butt" transform="matrix(0.744141, 0, 0, 0.744141, 0.420895, 0.000000992187)" fill="none" strokeLinejoin="miter" d="M 20.001318 -0.00000133333 L 164.993453 -0.00000133333 C 170.29529 -0.00000133333 175.381905 2.104986 179.135186 5.858267 C 182.883218 9.606298 184.993454 14.692913 184.993454 20 L 184.993454 107.690294 C 184.993454 112.992132 182.883218 118.078746 179.135186 121.832027 C 175.381905 125.580059 170.29529 127.685046 164.993453 127.685046 L 20.001318 127.685046 C 14.694231 127.685046 9.607616 125.580059 5.859585 121.832027 C 2.106303 118.078746 0.00131646 112.992132 0.00131646 107.690294 L 0.00131646 20 C 0.00131646 14.692913 2.106303 9.606298 5.859585 5.858267 C 9.607616 2.104986 14.694231 -0.00000133333 20.001318 -0.00000133333 Z M 20.001318 -0.00000133333 " stroke="#e8e8e8" strokeWidth="16" stroke-opacity="1" stroke-miterlimit="4"/></g></g><g clip-path="url(#1d6a3d4cbb)"><path fill="#253b80" d="M 41.582031 59.941406 L 35.914062 59.941406 C 35.527344 59.941406 35.199219 60.222656 35.136719 60.605469 L 32.84375 75.132812 C 32.800781 75.417969 33.023438 75.675781 33.3125 75.675781 L 36.019531 75.675781 C 36.40625 75.675781 36.734375 75.394531 36.796875 75.011719 L 37.414062 71.09375 C 37.476562 70.710938 37.804688 70.429688 38.191406 70.429688 L 39.988281 70.429688 C 43.71875 70.429688 45.875 68.625 46.4375 65.046875 C 46.691406 63.480469 46.449219 62.25 45.714844 61.386719 C 44.910156 60.441406 43.480469 59.941406 41.582031 59.941406 Z M 42.238281 65.246094 C 41.925781 67.28125 40.375 67.28125 38.871094 67.28125 L 38.015625 67.28125 L 38.617188 63.484375 C 38.652344 63.253906 38.851562 63.085938 39.082031 63.085938 L 39.472656 63.085938 C 40.496094 63.085938 41.464844 63.085938 41.960938 63.667969 C 42.257812 64.015625 42.351562 64.53125 42.238281 65.246094 Z M 58.527344 65.183594 L 55.8125 65.183594 C 55.578125 65.183594 55.378906 65.351562 55.34375 65.582031 L 55.222656 66.339844 L 55.035156 66.066406 C 54.445312 65.210938 53.136719 64.925781 51.828125 64.925781 C 48.828125 64.925781 46.269531 67.199219 45.769531 70.382812 C 45.511719 71.96875 45.878906 73.488281 46.78125 74.550781 C 47.609375 75.523438 48.792969 75.929688 50.199219 75.929688 C 52.617188 75.929688 53.957031 74.375 53.957031 74.375 L 53.835938 75.128906 C 53.789062 75.417969 54.011719 75.675781 54.300781 75.675781 L 56.746094 75.675781 C 57.132812 75.675781 57.460938 75.394531 57.523438 75.011719 L 58.992188 65.726562 C 59.035156 65.441406 58.816406 65.183594 58.527344 65.183594 Z M 54.742188 70.460938 C 54.480469 72.011719 53.25 73.050781 51.679688 73.050781 C 50.890625 73.050781 50.261719 72.800781 49.859375 72.320312 C 49.457031 71.84375 49.304688 71.167969 49.433594 70.414062 C 49.675781 68.878906 50.925781 67.804688 52.472656 67.804688 C 53.242188 67.804688 53.871094 68.058594 54.28125 68.542969 C 54.695312 69.03125 54.859375 69.710938 54.742188 70.460938 Z M 70.253906 65.183594 L 72.980469 65.183594 C 73.363281 65.183594 73.585938 65.609375 73.367188 65.921875 L 64.296875 79.007812 C 64.148438 79.222656 63.90625 79.347656 63.648438 79.347656 L 60.925781 79.347656 C 60.542969 79.347656 60.316406 78.917969 60.539062 78.601562 L 63.363281 74.617188 L 60.359375 65.804688 C 60.257812 65.5 60.484375 65.183594 60.808594 65.183594 L 63.488281 65.183594 C 63.835938 65.183594 64.144531 65.410156 64.246094 65.742188 L 65.839844 71.066406 L 69.601562 65.527344 C 69.75 65.3125 69.992188 65.183594 70.253906 65.183594 Z M 70.253906 65.183594 " fill-opacity="1" fill-rule="evenodd"/></g><path fill="#179bd7" d="M 99.824219 75.132812 L 102.148438 60.339844 C 102.183594 60.109375 102.382812 59.941406 102.617188 59.941406 L 105.234375 59.941406 C 105.523438 59.941406 105.746094 60.199219 105.699219 60.488281 L 103.40625 75.011719 C 103.347656 75.394531 103.015625 75.675781 102.628906 75.675781 L 100.289062 75.675781 C 100 75.675781 99.777344 75.417969 99.824219 75.132812 Z M 82.011719 59.941406 L 76.339844 59.941406 C 75.953125 59.941406 75.625 60.222656 75.5625 60.605469 L 73.273438 75.132812 C 73.226562 75.417969 73.449219 75.675781 73.738281 75.675781 L 76.644531 75.675781 C 76.917969 75.675781 77.148438 75.480469 77.191406 75.210938 L 77.839844 71.09375 C 77.902344 70.710938 78.230469 70.429688 78.617188 70.429688 L 80.410156 70.429688 C 84.144531 70.429688 86.300781 68.625 86.863281 65.046875 C 87.117188 63.480469 86.875 62.25 86.140625 61.386719 C 85.335938 60.441406 83.90625 59.941406 82.011719 59.941406 Z M 82.664062 65.246094 C 82.355469 67.28125 80.800781 67.28125 79.296875 67.28125 L 78.441406 67.28125 L 79.042969 63.484375 C 79.078125 63.253906 79.277344 63.085938 79.507812 63.085938 L 79.902344 63.085938 C 80.925781 63.085938 81.890625 63.085938 82.390625 63.667969 C 82.6875 64.015625 82.777344 64.53125 82.664062 65.246094 Z M 98.949219 65.183594 L 96.238281 65.183594 C 96.003906 65.183594 95.808594 65.351562 95.773438 65.582031 L 95.652344 66.339844 L 95.460938 66.0625 C 94.875 65.210938 93.566406 64.925781 92.257812 64.925781 C 89.257812 64.925781 86.695312 67.199219 86.199219 70.382812 C 85.941406 71.96875 86.304688 73.488281 87.207031 74.550781 C 88.035156 75.523438 89.21875 75.929688 90.625 75.929688 C 93.042969 75.929688 94.382812 74.375 94.382812 74.375 L 94.261719 75.128906 C 94.21875 75.417969 94.4375 75.675781 94.730469 75.675781 L 97.171875 75.675781 C 97.5625 75.675781 97.890625 75.394531 97.949219 75.011719 L 99.417969 65.726562 C 99.464844 65.441406 99.242188 65.183594 98.949219 65.183594 Z M 95.167969 70.460938 C 94.90625 72.011719 93.675781 73.050781 92.105469 73.050781 C 91.320312 73.050781 90.6875 72.800781 90.28125 72.320312 C 89.882812 71.84375 89.730469 71.167969 89.855469 70.414062 C 90.101562 68.878906 91.351562 67.804688 92.898438 67.804688 C 93.667969 67.804688 94.296875 68.058594 94.707031 68.542969 C 95.125 69.03125 95.289062 69.710938 95.167969 70.460938 Z M 95.167969 70.460938 " fill-opacity="1" fill-rule="evenodd"/><path fill="#253b80" d="M 62.558594 54.746094 L 63.253906 50.324219 L 61.703125 50.285156 L 54.292969 50.285156 L 59.441406 17.644531 C 59.457031 17.546875 59.511719 17.457031 59.585938 17.390625 C 59.660156 17.324219 59.757812 17.289062 59.859375 17.289062 L 72.355469 17.289062 C 76.507812 17.289062 79.367188 18.152344 80.863281 19.855469 C 81.566406 20.65625 82.011719 21.488281 82.226562 22.40625 C 82.453125 23.371094 82.457031 24.523438 82.234375 25.929688 L 82.21875 26.03125 L 82.21875 26.929688 L 82.921875 27.328125 C 83.511719 27.640625 83.980469 28 84.339844 28.410156 C 84.941406 29.09375 85.328125 29.960938 85.492188 30.988281 C 85.660156 32.046875 85.605469 33.308594 85.328125 34.734375 C 85.007812 36.375 84.492188 37.804688 83.792969 38.972656 C 83.148438 40.050781 82.332031 40.941406 81.359375 41.636719 C 80.433594 42.292969 79.332031 42.792969 78.085938 43.113281 C 76.878906 43.425781 75.503906 43.585938 73.992188 43.585938 L 73.019531 43.585938 C 72.324219 43.585938 71.648438 43.835938 71.121094 44.285156 C 70.589844 44.742188 70.234375 45.367188 70.128906 46.050781 L 70.054688 46.449219 L 68.824219 54.246094 L 68.769531 54.53125 C 68.753906 54.625 68.726562 54.667969 68.691406 54.699219 C 68.65625 54.726562 68.609375 54.746094 68.5625 54.746094 Z M 62.558594 54.746094 " fill-opacity="1" fill-rule="nonzero"/><path fill="#179bd7" d="M 83.585938 26.136719 C 83.546875 26.375 83.503906 26.617188 83.457031 26.867188 C 81.808594 35.324219 76.171875 38.246094 68.96875 38.246094 L 65.304688 38.246094 C 64.421875 38.246094 63.679688 38.886719 63.542969 39.753906 L 61.664062 51.652344 L 61.132812 55.023438 C 61.042969 55.59375 61.484375 56.109375 62.058594 56.109375 L 68.5625 56.109375 C 69.332031 56.109375 69.988281 55.550781 70.109375 54.789062 L 70.171875 54.460938 L 71.398438 46.695312 L 71.476562 46.269531 C 71.59375 45.507812 72.25 44.949219 73.019531 44.949219 L 73.992188 44.949219 C 80.292969 44.949219 85.226562 42.390625 86.667969 34.992188 C 87.269531 31.902344 86.957031 29.320312 85.363281 27.507812 C 84.882812 26.960938 84.285156 26.503906 83.585938 26.136719 Z M 83.585938 26.136719 " fill-opacity="1" fill-rule="nonzero"/><path fill="#222d65" d="M 81.859375 25.449219 C 81.609375 25.375 81.347656 25.308594 81.082031 25.25 C 80.8125 25.191406 80.539062 25.136719 80.257812 25.09375 C 79.269531 24.933594 78.183594 24.859375 77.023438 24.859375 L 67.230469 24.859375 C 66.988281 24.859375 66.761719 24.910156 66.554688 25.011719 C 66.101562 25.226562 65.765625 25.65625 65.6875 26.179688 L 63.601562 39.367188 L 63.542969 39.753906 C 63.679688 38.886719 64.421875 38.246094 65.300781 38.246094 L 68.96875 38.246094 C 76.167969 38.246094 81.808594 35.324219 83.457031 26.867188 C 83.503906 26.617188 83.546875 26.375 83.582031 26.136719 C 83.167969 25.914062 82.714844 25.726562 82.230469 25.566406 C 82.109375 25.523438 81.984375 25.484375 81.859375 25.449219 Z M 81.859375 25.449219 " fill-opacity="1" fill-rule="nonzero"/><g clip-path="url(#f0576190c5)"><path fill="#253b80" d="M 65.6875 26.179688 C 65.765625 25.65625 66.101562 25.226562 66.554688 25.011719 C 66.761719 24.914062 66.988281 24.859375 67.230469 24.859375 L 77.027344 24.859375 C 78.1875 24.859375 79.269531 24.933594 80.257812 25.09375 C 80.539062 25.140625 80.816406 25.191406 81.082031 25.25 C 81.347656 25.308594 81.609375 25.375 81.859375 25.449219 C 81.984375 25.488281 82.109375 25.527344 82.230469 25.5625 C 82.714844 25.726562 83.167969 25.914062 83.585938 26.136719 C 84.074219 23.011719 83.582031 20.882812 81.890625 18.957031 C 80.027344 16.835938 76.664062 15.925781 72.359375 15.925781 L 59.863281 15.925781 C 58.980469 15.925781 58.230469 16.566406 58.097656 17.433594 L 52.890625 50.410156 C 52.789062 51.0625 53.292969 51.652344 53.949219 51.652344 L 61.664062 51.652344 L 63.601562 39.367188 Z M 65.6875 26.179688 " fill-opacity="1" fill-rule="nonzero"/></g></svg>