<svg xmlns="http://www.w3.org/2000/svg" viewBox="0 0 565.9 105.3">
	<polygon fill="#007bc2" points="296.8,7.4 271.3,29 258,29.1 271.5,7.4"/>
	<polygon fill="#007bc2" points="300.2,85.8 308,85.8 308,22.3 300.2,22.3 300.2,7.4 334.2,7.4 334.2,62.2 353.1,49.6 353.1,49.1 
		342,49.1 342,34.8 384.9,34.8 384.9,49.3 363,59.4 380,85.8 386.4,85.8 386.4,100.7 346.4,100.7 346.4,85.8 353.5,85.8 344.9,72.4 
		334.2,80.5 334.2,85.8 339.6,85.8 339.6,100.7 300.2,100.7"/>
	
	<path fill="#007bc2" d="M134.2,60.5c0-7-1.5-13.4-10.2-13.4c-8.3,0-9.3,6.8-9.3,13.4H134.2z M114.7,74c0,6.8,1.7,14.4,10,14.4
		c5,0,8.1-1.9,9.3-6.9h24.4c-0.1,1-0.3,1.9-0.6,2.9c-5,14.8-18.7,18.2-33.1,18.2c-22.3,0-35.5-13-35.5-35.1
		c0-21,13.2-34.7,34.8-34.7c20.2,0,28.7,8.4,32.3,17.7c3.3,9.4,3.3,19.6,3.3,23.5H114.7z"/>
	<path fill="#007bc2" d="M163.3,85.8h7.8v-36h-7.8V34.8h31.5v13h0.3c3.8-11,14.5-14.9,25.5-14.9c13.5,0,22,7.5,22,20.4v32.5h7v14.9
		h-39.5V85.8h6.4v-26c0-5.7-3.1-9.8-8.9-9.8c-6.5,0-10.2,4.3-10.2,10.2v25.5h5.8v14.9h-39.8V85.8z"/>
	
	<polygon fill="#007bc2" points="254.4,100.7 254.4,85.8 262.2,85.8 262.2,49.8 254.4,49.8 254.4,34.8 288.4,34.8 288.4,85.8 
		295.3,85.8 295.3,100.7"/>
	
	<path fill="#007bc2" d="M55.3,66.6c0-8.6-2.9-18-13.2-18c-11,0-12.2,11.6-12.2,20.1c0,8.3,1.8,18.1,12,18.1
		C52.8,86.9,55.3,75.4,55.3,66.6 M80.9,85.8h7.2v14.9H56.4V88.4h-0.3c-3.7,10.8-13.6,14.2-24.2,14.2c-21.8,0-28.9-16-28.9-35.3
		c0-18.6,8.4-34.4,29.4-34.4c8.9,0,18.1,2.5,22.2,11.2h0.3V22.3h-8.5V7.4h34.6V85.8z"/>
	
	<path fill="#007bc2" d="M411.1,85.8v14.9h-14.9V85.8H411.1z"/>
	
	<path fill="#007bc2" d="M488.3,60.4h-20.9c0-3-1.2-5.9-3-8.1c-1.8-2.2-4.6-3.6-7.7-3.6c-9.8,0-11.9,9.8-11.9,17.5
		c0,8,1.1,20.7,11.9,20.7c3.2,0,5.7-1.1,7.3-2.9c1.7-1.8,2.5-4.3,2.6-7.2h21.9c-0.8,21.3-19.2,25.8-33.9,25.8
		c-22.6,0-36.4-13.5-36.4-35.6c0-20.1,10.8-34.1,31.7-34.1c7.9,0,14.9,2.5,18.2,9.7h0.3v-7.7h19.9V60.4z"/>
	<path fill="#007bc2" d="M497.3,83.1l36-34.8h-16v7.4h-19v-21h63.4v17.5l-34.8,33.4h16.2v-7h19v21.9h-64.8V83.1z"/>
</svg>