<svg width="154" height="48" viewBox="0 0 154 48" fill="none" xmlns="http://www.w3.org/2000/svg">
	<path fill-rule="evenodd" clip-rule="evenodd" d="M6.4021 22.2052H9.98512V9.64405H6.4021V22.2052ZM16.2814 11.4416V18.6182C16.2814 22.2074 14.5021 23.4794 11.7832 23.9703V24.0333C14.4866 24.4819 16.2814 25.7959 16.2814 29.2667V41.9441H9.98374V25.7948H6.4021V41.9441H0.0881348V6.05808L10.884 6.05588C14.4825 6.05588 16.2814 7.8534 16.2814 11.4416ZM42.9939 15.9264V6.05588H27.6985V41.9441H42.9939V32.1008H41.1936V38.3549L33.9959 38.3557V25.7024H40.2944V22.1118H33.9959L33.9937 9.64405H41.1936V15.9251L42.9939 15.9264ZM69.7879 15.9264L69.7868 6.05588H54.4924V41.9441H60.7899V25.7024H67.0887V22.1118H60.7899L60.7854 9.64405H67.9879V15.9251L69.7879 15.9264ZM118.141 15.9264V6.05588H102.847V41.9441H118.141V32.1008H116.342V38.3549L109.144 38.3557V25.7024H115.442V22.1118H109.144L109.131 9.64405H116.342V15.9251L118.141 15.9264ZM90.268 41.9441L92.8995 32.0739L91.0991 32.0747L89.4259 38.3557H82.2152L90.7543 6.05588H84.456L74.9736 41.9441H90.268Z" fill="#191919"/>
	<path d="M153.117 0L140.629 14.8829L128.141 0V18.2328L132.98 23.9995L128.141 29.7659V48L140.629 33.1168L153.117 48V29.7659L148.279 23.9995L153.117 18.2328V0Z" fill="#DF0028"/>
</svg>
